<svg xmlns="http://www.w3.org/2000/svg" width="10.468" height="9.568" viewBox="0 0 10.468 9.568">
  <path id="Path_676" data-name="Path 676" d="M30.966,5.985A5.713,5.713,0,0,1,32.889,7.9c.09.149.173.321.259.5s.186.389.292.563a.225.225,0,0,1,.014.023.981.981,0,0,0,.813.576h.051a1.451,1.451,0,0,0,1.053-.252,1.369,1.369,0,0,0,.336-.7V8.615c.024-.106.044-.213.064-.324.023-.127.047-.256.076-.38.014-.06.031-.12.046-.18a.039.039,0,0,1,0-.011A16.616,16.616,0,0,1,39.331,1.2q.153-.182.312-.36a8.829,8.829,0,0,1,.688-.688c.02-.018.05-.049.085-.086L40.475,0C39.2.041,36.043.712,34.256,6.032a.213.213,0,0,1-.135.134.215.215,0,0,1-.189-.027c-.025-.017-2.347-1.584-3.925-.654l.02.01a7.566,7.566,0,0,1,.938.489Zm5.251-2.667A6.5,6.5,0,0,1,38.657.687a.214.214,0,0,1,.287.094.212.212,0,0,1-.095.285,6.209,6.209,0,0,0-2.259,2.457.214.214,0,0,1-.188.109.212.212,0,0,1-.187-.315Zm-.645,1.068.214-.424a.214.214,0,0,1,.369-.022.21.21,0,0,1,.013.212l-.214.424a.215.215,0,0,1-.287.095.211.211,0,0,1-.1-.284Zm0,0" transform="translate(-30.007 0)" fill="#fff"/>
</svg>
