<!-- <svg xmlns="http://www.w3.org/2000/svg" width="19" height="20" viewBox="0 0 19 20">
  <path id="Vector" d="M10.217,0a2.152,2.152,0,0,1,1.819,1.04,1.778,1.778,0,0,1,.276,1.06,1.546,1.546,0,0,0,.235.88,1.973,1.973,0,0,0,2.575.69,2.112,2.112,0,0,1,2.872.76l.685,1.18a2.027,2.027,0,0,1-.756,2.83,1.822,1.822,0,0,0-.654,2.5,1.547,1.547,0,0,0,.634.64,2.3,2.3,0,0,1,.828.79,2.018,2.018,0,0,1-.02,2.05l-.715,1.2a2.1,2.1,0,0,1-2.892.74,1.63,1.63,0,0,0-.9-.23,1.908,1.908,0,0,0-1.891,1.82A2.068,2.068,0,0,1,10.2,20H8.807a2.07,2.07,0,0,1-2.126-2.05A1.892,1.892,0,0,0,4.8,16.13a1.586,1.586,0,0,0-.9.23,2.161,2.161,0,0,1-1.083.3A2.134,2.134,0,0,1,1,15.62l-.705-1.2a2,2,0,0,1-.02-2.05,2.118,2.118,0,0,1,.818-.79,1.634,1.634,0,0,0,.644-.64,1.834,1.834,0,0,0-.664-2.5A2.044,2.044,0,0,1,.314,5.61L1,4.43a2.124,2.124,0,0,1,2.882-.76,1.963,1.963,0,0,0,2.565-.69,1.546,1.546,0,0,0,.235-.88,1.785,1.785,0,0,1,.286-1.06A2.195,2.195,0,0,1,8.776,0ZM9.512,7.18a2.826,2.826,0,1,0,0,5.65,2.825,2.825,0,1,0,0-5.65Z"/>
</svg> -->
<svg xmlns="http://www.w3.org/2000/svg" fill="none" viewBox="0 0 24 24" stroke-width="1.5" stroke="#919491" class="w-9 h-9">
  <path stroke-linecap="round" stroke-linejoin="round" d="M9.594 3.94c.09-.542.56-.94 1.11-.94h2.593c.55 0 1.02.398 1.11.94l.213 1.281c.063.374.313.686.645.87.074.04.147.083.22.127.324.196.72.257 1.075.124l1.217-.456a1.125 1.125 0 011.37.49l1.296 2.247a1.125 1.125 0 01-.26 1.431l-1.003.827c-.293.24-.438.613-.431.992a6.759 6.759 0 010 .255c-.007.378.138.75.43.99l1.005.828c.424.35.534.954.26 1.43l-1.298 2.247a1.125 1.125 0 01-1.369.491l-1.217-.456c-.355-.133-.75-.072-1.076.124a6.57 6.57 0 01-.22.128c-.331.183-.581.495-.644.869l-.213 1.28c-.09.543-.56.941-1.11.941h-2.594c-.55 0-1.02-.398-1.11-.94l-.213-1.281c-.062-.374-.312-.686-.644-.87a6.52 6.52 0 01-.22-.127c-.325-.196-.72-.257-1.076-.124l-1.217.456a1.125 1.125 0 01-1.369-.49l-1.297-2.247a1.125 1.125 0 01.26-1.431l1.004-.827c.292-.24.437-.613.43-.992a6.932 6.932 0 010-.255c.007-.378-.138-.75-.43-.99l-1.004-.828a1.125 1.125 0 01-.26-1.43l1.297-2.247a1.125 1.125 0 011.37-.491l1.216.456c.356.133.751.072 1.076-.124.072-.044.146-.087.22-.128.332-.183.582-.495.644-.869l.214-1.281z" />
  <path stroke-linecap="round" stroke-linejoin="round" d="M15 12a3 3 0 11-6 0 3 3 0 016 0z" />
</svg>
